<svg xmlns="http://www.w3.org/2000/svg" xmlns:xlink="http://www.w3.org/1999/xlink" contentStyleType="text/css" data-diagram-type="DESCRIPTION" height="1619px" preserveAspectRatio="none" style="width:399px;height:1619px;background:#FFFFFF;" version="1.1" viewBox="0 0 399 1619" width="399px" zoomAndPan="magnify"><defs/><g><!--cluster Sistema Avengers Colombia--><g class="cluster" data-entity="Sistema Avengers Colombia" data-source-line="9" data-uid="ent0006" id="cluster_Sistema Avengers Colombia"><rect fill="none" height="1606" rx="2.5" ry="2.5" style="stroke:#181818;stroke-width:1;" width="244.34" x="149.08" y="7"/><text fill="#000000" font-family="sans-serif" font-size="14" font-weight="bold" lengthAdjust="spacing" textLength="220.5273" x="160.9863" y="21.9951">Sistema Avengers Colombia</text></g><!--entity U1--><g class="entity" data-entity="U1" data-source-line="10" data-uid="ent0007" id="entity_U1"><ellipse cx="271.2467" cy="122.0036" fill="#F1F1F1" rx="59.4967" ry="14.5236" style="stroke:#181818;stroke-width:0.5;"/><text fill="#000000" font-family="sans-serif" font-size="14" lengthAdjust="spacing" textLength="79.8984" x="231.2975" y="126.6521">Registrarse</text></g><!--entity U2--><g class="entity" data-entity="U2" data-source-line="11" data-uid="ent0008" id="entity_U2"><ellipse cx="271.2511" cy="57.0042" fill="#F1F1F1" rx="64.3711" ry="15.2742" style="stroke:#181818;stroke-width:0.5;"/><text fill="#000000" font-family="sans-serif" font-size="14" lengthAdjust="spacing" textLength="91.793" x="225.3546" y="61.6527">Iniciar sesi&#243;n</text></g><!--entity U3--><g class="entity" data-entity="U3" data-source-line="12" data-uid="ent0009" id="entity_U3"><ellipse cx="271.2459" cy="409.9952" fill="#F1F1F1" rx="66.5259" ry="15.7052" style="stroke:#181818;stroke-width:0.5;"/><text fill="#000000" font-family="sans-serif" font-size="14" lengthAdjust="spacing" textLength="97.4805" x="222.5056" y="414.6436">Publicar tarea</text></g><!--entity U4--><g class="entity" data-entity="U4" data-source-line="13" data-uid="ent0010" id="entity_U4"><ellipse cx="271.245" cy="338.997" fill="#F1F1F1" rx="88.085" ry="20.017" style="stroke:#181818;stroke-width:0.5;"/><text fill="#000000" font-family="sans-serif" font-size="14" lengthAdjust="spacing" textLength="149.3926" x="196.5487" y="343.6454">Editar/Cancelar tarea</text></g><!--entity U5--><g class="entity" data-entity="U5" data-source-line="14" data-uid="ent0011" id="entity_U5"><ellipse cx="271.2509" cy="262.0022" fill="#F1F1F1" rx="97.5109" ry="21.9022" style="stroke:#181818;stroke-width:0.5;"/><text fill="#000000" font-family="sans-serif" font-size="14" lengthAdjust="spacing" textLength="170.5566" x="185.9726" y="266.6506">Ver mis tareas (Usuario)</text></g><!--entity U6--><g class="entity" data-entity="U6" data-source-line="15" data-uid="ent0012" id="entity_U6"><ellipse cx="271.2471" cy="187.9994" fill="#F1F1F1" rx="71.2971" ry="16.6594" style="stroke:#181818;stroke-width:0.5;"/><text fill="#000000" font-family="sans-serif" font-size="14" lengthAdjust="spacing" textLength="109.6279" x="216.4332" y="192.6479">Gestionar plazo</text></g><!--entity H1--><g class="entity" data-entity="H1" data-source-line="17" data-uid="ent0013" id="entity_H1"><ellipse cx="271.25" cy="1125" fill="#F1F1F1" rx="82.85" ry="18.97" style="stroke:#181818;stroke-width:0.5;"/><text fill="#000000" font-family="sans-serif" font-size="14" lengthAdjust="spacing" textLength="137.3477" x="202.5762" y="1129.6484">Registrarse (H&#233;roe)</text></g><!--entity H2--><g class="entity" data-entity="H2" data-source-line="18" data-uid="ent0014" id="entity_H2"><ellipse cx="271.249" cy="1051.0038" fill="#F1F1F1" rx="88.019" ry="20.0038" style="stroke:#181818;stroke-width:0.5;"/><text fill="#000000" font-family="sans-serif" font-size="14" lengthAdjust="spacing" textLength="149.2422" x="196.6279" y="1055.6522">Iniciar sesi&#243;n (H&#233;roe)</text></g><!--entity H3--><g class="entity" data-entity="H3" data-source-line="19" data-uid="ent0015" id="entity_H3"><ellipse cx="271.2454" cy="975.0011" fill="#F1F1F1" rx="91.0554" ry="20.6111" style="stroke:#181818;stroke-width:0.5;"/><text fill="#000000" font-family="sans-serif" font-size="14" lengthAdjust="spacing" textLength="156.126" x="193.1824" y="979.6495">Ver tareas disponibles</text></g><!--entity H4--><g class="entity" data-entity="H4" data-source-line="20" data-uid="ent0016" id="entity_H4"><ellipse cx="271.2547" cy="903.9969" fill="#F1F1F1" rx="65.9847" ry="15.5969" style="stroke:#181818;stroke-width:0.5;"/><text fill="#000000" font-family="sans-serif" font-size="14" lengthAdjust="spacing" textLength="96.0654" x="223.2219" y="908.6454">Aceptar tarea</text></g><!--entity H5--><g class="entity" data-entity="H5" data-source-line="21" data-uid="ent0017" id="entity_H5"><ellipse cx="271.2457" cy="838.9951" fill="#F1F1F1" rx="62.1257" ry="14.8251" style="stroke:#181818;stroke-width:0.5;"/><text fill="#000000" font-family="sans-serif" font-size="14" lengthAdjust="spacing" textLength="85.6953" x="228.398" y="843.6436">Enviar tarea</text></g><!--entity H6--><g class="entity" data-entity="H6" data-source-line="22" data-uid="ent0018" id="entity_H6"><ellipse cx="271.2502" cy="766.004" fill="#F1F1F1" rx="101.5202" ry="22.704" style="stroke:#181818;stroke-width:0.5;"/><text fill="#000000" font-family="sans-serif" font-size="14" lengthAdjust="spacing" textLength="179.4023" x="181.549" y="770.6525">Extender plazo (opcional)</text></g><!--entity H7--><g class="entity" data-entity="H7" data-source-line="23" data-uid="ent0019" id="entity_H7"><ellipse cx="271.2522" cy="687.0044" fill="#F1F1F1" rx="92.5222" ry="20.9044" style="stroke:#181818;stroke-width:0.5;"/><text fill="#000000" font-family="sans-serif" font-size="14" lengthAdjust="spacing" textLength="159.4277" x="191.5383" y="691.6529">Ver mis tareas (H&#233;roe)</text></g><!--entity H8--><g class="entity" data-entity="H8" data-source-line="24" data-uid="ent0020" id="entity_H8"><ellipse cx="271.2512" cy="617.0002" fill="#F1F1F1" rx="60.7512" ry="14.5502" style="stroke:#181818;stroke-width:0.5;"/><text fill="#000000" font-family="sans-serif" font-size="14" lengthAdjust="spacing" textLength="81.8604" x="230.3211" y="621.6487">Editar perfil</text></g><!--entity A1--><g class="entity" data-entity="A1" data-source-line="26" data-uid="ent0021" id="entity_A1"><ellipse cx="271.2456" cy="1198.9991" fill="#F1F1F1" rx="89.2456" ry="20.2491" style="stroke:#181818;stroke-width:0.5;"/><text fill="#000000" font-family="sans-serif" font-size="14" lengthAdjust="spacing" textLength="152.0313" x="195.23" y="1203.6476">Iniciar sesi&#243;n (Admin)</text></g><!--entity A2--><g class="entity" data-entity="A2" data-source-line="27" data-uid="ent0022" id="entity_A2"><ellipse cx="271.2473" cy="1493.9975" fill="#F1F1F1" rx="91.2373" ry="20.6475" style="stroke:#181818;stroke-width:0.5;"/><text fill="#000000" font-family="sans-serif" font-size="14" lengthAdjust="spacing" textLength="156.5361" x="192.9792" y="1498.6459">CRUD usuarios/h&#233;roes</text></g><!--entity A3--><g class="entity" data-entity="A3" data-source-line="28" data-uid="ent0023" id="entity_A3"><ellipse cx="271.2513" cy="1422.9983" fill="#F1F1F1" rx="63.4413" ry="15.0883" style="stroke:#181818;stroke-width:0.5;"/><text fill="#000000" font-family="sans-serif" font-size="14" lengthAdjust="spacing" textLength="89.291" x="226.6058" y="1427.6467">CRUD tareas</text></g><!--entity A4--><g class="entity" data-entity="A4" data-source-line="29" data-uid="ent0024" id="entity_A4"><ellipse cx="271.2521" cy="1349.9984" fill="#F1F1F1" rx="104.6921" ry="23.3384" style="stroke:#181818;stroke-width:0.5;"/><text fill="#000000" font-family="sans-serif" font-size="14" lengthAdjust="spacing" textLength="186.3477" x="178.0783" y="1354.6469">Gestionar administradores</text></g><!--entity A5--><g class="entity" data-entity="A5" data-source-line="30" data-uid="ent0025" id="entity_A5"><ellipse cx="271.2489" cy="1272.9958" fill="#F1F1F1" rx="80.4789" ry="18.4958" style="stroke:#181818;stroke-width:0.5;"/><text fill="#000000" font-family="sans-serif" font-size="14" lengthAdjust="spacing" textLength="131.8037" x="205.347" y="1277.6442">Ver datos privados</text></g><!--entity T1--><g class="entity" data-entity="T1" data-source-line="32" data-uid="ent0026" id="entity_T1"><ellipse cx="271.2492" cy="551.0018" fill="#F1F1F1" rx="69.1092" ry="16.2218" style="stroke:#181818;stroke-width:0.5;"/><text fill="#000000" font-family="sans-serif" font-size="14" lengthAdjust="spacing" textLength="104.125" x="219.1867" y="555.6503">Buscar perfiles</text></g><!--entity T2--><g class="entity" data-entity="T2" data-source-line="33" data-uid="ent0027" id="entity_T2"><ellipse cx="271.2492" cy="1573.0038" fill="#F1F1F1" rx="106.1692" ry="23.6338" style="stroke:#181818;stroke-width:0.5;"/><text fill="#000000" font-family="sans-serif" font-size="14" lengthAdjust="spacing" textLength="189.5674" x="176.4655" y="1577.6523">Notificaciones autom&#225;ticas</text></g><!--entity T3--><g class="entity" data-entity="T3" data-source-line="34" data-uid="ent0028" id="entity_T3"><ellipse cx="271.2458" cy="479.9972" fill="#F1F1F1" rx="86.3858" ry="19.6772" style="stroke:#181818;stroke-width:0.5;"/><text fill="#000000" font-family="sans-serif" font-size="14" lengthAdjust="spacing" textLength="145.5098" x="198.491" y="484.6456">Ver panel de perfiles</text></g><!--entity Usuario--><g class="entity" data-entity="Usuario" data-source-line="4" data-uid="ent0002" id="entity_Usuario"><ellipse cx="55.5421" cy="271.35" fill="#F1F1F1" rx="8" ry="8" style="stroke:#181818;stroke-width:0.5;"/><path d="M55.5421,279.35 L55.5421,306.35 M42.5421,287.35 L68.5421,287.35 M55.5421,306.35 L42.5421,321.35 M55.5421,306.35 L68.5421,321.35" fill="none" style="stroke:#181818;stroke-width:0.5;"/><text fill="#000000" font-family="sans-serif" font-size="14" lengthAdjust="spacing" textLength="53.2041" x="28.94" y="335.8451">Usuario</text></g><!--entity H?roe--><g class="entity" data-entity="H&#233;roe" data-source-line="5" data-uid="ent0003" id="entity_H&#233;roe"><ellipse cx="55.5376" cy="773.35" fill="#F1F1F1" rx="8" ry="8" style="stroke:#181818;stroke-width:0.5;"/><path d="M55.5376,781.35 L55.5376,808.35 M42.5376,789.35 L68.5376,789.35 M55.5376,808.35 L42.5376,823.35 M55.5376,808.35 L68.5376,823.35" fill="none" style="stroke:#181818;stroke-width:0.5;"/><text fill="#000000" font-family="sans-serif" font-size="14" lengthAdjust="spacing" textLength="42.0752" x="34.5" y="837.8451">H&#233;roe</text></g><!--entity Administrador--><g class="entity" data-entity="Administrador" data-source-line="6" data-uid="ent0004" id="entity_Administrador"><ellipse cx="55.54" cy="1320.35" fill="#F1F1F1" rx="8" ry="8" style="stroke:#181818;stroke-width:0.5;"/><path d="M55.54,1328.35 L55.54,1355.35 M42.54,1336.35 L68.54,1336.35 M55.54,1355.35 L42.54,1370.35 M55.54,1355.35 L68.54,1370.35" fill="none" style="stroke:#181818;stroke-width:0.5;"/><text fill="#000000" font-family="sans-serif" font-size="14" lengthAdjust="spacing" textLength="99.0801" x="6" y="1384.8451">Administrador</text></g><!--entity Sistema--><g class="entity" data-entity="Sistema" data-source-line="7" data-uid="ent0005" id="entity_Sistema"><ellipse cx="55.5448" cy="1543.35" fill="#F1F1F1" rx="8" ry="8" style="stroke:#181818;stroke-width:0.5;"/><path d="M55.5448,1551.35 L55.5448,1578.35 M42.5448,1559.35 L68.5448,1559.35 M55.5448,1578.35 L42.5448,1593.35 M55.5448,1578.35 L68.5448,1593.35" fill="none" style="stroke:#181818;stroke-width:0.5;"/><text fill="#000000" font-family="sans-serif" font-size="14" lengthAdjust="spacing" textLength="56.3896" x="27.35" y="1607.8451">Sistema</text></g><!--link Usuario to U1--><g class="link" data-entity-1="Usuario" data-entity-2="U1" data-source-line="38" data-uid="lnk29" id="link_Usuario_U1"><path d="M68.86,262.58 C81.64,228.94 104.87,181.29 141.08,154 C161.93,138.29 183.6242,131.2114 207.9642,127.0914" fill="none" id="Usuario-to-U1" style="stroke:#181818;stroke-width:1;"/><polygon fill="#181818" points="213.88,126.09,204.3386,123.6482,208.9501,126.9245,205.6738,131.536,213.88,126.09" style="stroke:#181818;stroke-width:1;"/></g><!--link Usuario to U2--><g class="link" data-entity-1="Usuario" data-entity-2="U2" data-source-line="39" data-uid="lnk30" id="link_Usuario_U2"><path d="M61.32,262.63 C69.31,215.08 89.9,134.88 141.08,90 C159.61,73.75 179.1795,66.3979 202.6095,62.0779" fill="none" id="Usuario-to-U2" style="stroke:#181818;stroke-width:1;"/><polygon fill="#181818" points="208.51,60.99,198.9339,58.6882,203.5929,61.8966,200.3845,66.5556,208.51,60.99" style="stroke:#181818;stroke-width:1;"/></g><!--link Usuario to U3--><g class="link" data-entity-1="Usuario" data-entity-2="U3" data-source-line="40" data-uid="lnk31" id="link_Usuario_U3"><path d="M82.47,330.44 C98,346.38 118.98,365.18 141.08,377 C163.43,388.95 184.4206,395.475 207.8506,400.445" fill="none" id="Usuario-to-U3" style="stroke:#181818;stroke-width:1;"/><polygon fill="#181818" points="213.72,401.69,205.7459,395.9095,208.8288,400.6525,204.0859,403.7354,213.72,401.69" style="stroke:#181818;stroke-width:1;"/></g><!--link Usuario to U4--><g class="link" data-entity-1="Usuario" data-entity-2="U4" data-source-line="41" data-uid="lnk32" id="link_Usuario_U4"><path d="M82.32,305.58 C111.52,310.78 154.3927,318.3996 194.9427,325.6096" fill="none" id="Usuario-to-U4" style="stroke:#181818;stroke-width:1;"/><polygon fill="#181818" points="200.85,326.66,192.6892,321.1462,195.9272,325.7847,191.2887,329.0227,200.85,326.66" style="stroke:#181818;stroke-width:1;"/></g><!--link Usuario to U5--><g class="link" data-entity-1="Usuario" data-entity-2="U5" data-source-line="42" data-uid="lnk33" id="link_Usuario_U5"><path d="M82.32,296.3 C109.96,291.25 149.2674,284.0768 188.4074,276.9368" fill="none" id="Usuario-to-U5" style="stroke:#181818;stroke-width:1;"/><polygon fill="#181818" points="194.31,275.86,184.7383,273.5401,189.3912,276.7573,186.174,281.4102,194.31,275.86" style="stroke:#181818;stroke-width:1;"/></g><!--link Usuario to U6--><g class="link" data-entity-1="Usuario" data-entity-2="U6" data-source-line="43" data-uid="lnk34" id="link_Usuario_U6"><path d="M82.4,270.89 C97.9,254.56 118.88,235.27 141.08,223 C162.84,210.97 183.1247,204.2436 206.1847,198.9036" fill="none" id="Usuario-to-U6" style="stroke:#181818;stroke-width:1;"/><polygon fill="#181818" points="212.03,197.55,202.3596,195.6835,207.1589,198.678,204.1644,203.4773,212.03,197.55" style="stroke:#181818;stroke-width:1;"/></g><!--link Usuario to T1--><g class="link" data-entity-1="Usuario" data-entity-2="T1" data-source-line="44" data-uid="lnk35" id="link_Usuario_T1"><path d="M60.96,339.36 C68.62,387.84 88.9,470.53 141.08,517 C158.66,532.65 176.7247,540.0232 199.2247,544.6832" fill="none" id="Usuario-to-T1" style="stroke:#181818;stroke-width:1;"/><polygon fill="#181818" points="205.1,545.9,197.0983,540.1579,200.2039,544.886,195.4758,547.9916,205.1,545.9" style="stroke:#181818;stroke-width:1;"/></g><!--link Usuario to T3--><g class="link" data-entity-1="Usuario" data-entity-2="T3" data-source-line="45" data-uid="lnk36" id="link_Usuario_T3"><path d="M70.09,339.41 C83.36,371.61 106.65,416.47 141.08,443 C157.43,455.6 172.1374,462.3096 191.9374,467.7896" fill="none" id="Usuario-to-T3" style="stroke:#181818;stroke-width:1;"/><polygon fill="#181818" points="197.72,469.39,190.113,463.1343,192.9012,468.0563,187.9791,470.8444,197.72,469.39" style="stroke:#181818;stroke-width:1;"/></g><!--link H?roe to H1--><g class="link" data-entity-1="H&#233;roe" data-entity-2="H1" data-source-line="48" data-uid="lnk37" id="link_H&#233;roe_H1"><path d="M56.69,841.29 C59.07,902.37 72.82,1021.8 141.08,1089 C155.6,1103.29 169.4876,1110.4553 189.1076,1115.7553" fill="none" id="H&#233;roe-to-H1" style="stroke:#181818;stroke-width:1;"/><polygon fill="#181818" points="194.9,1117.32,187.2546,1111.1113,190.073,1116.0161,185.1683,1118.8345,194.9,1117.32" style="stroke:#181818;stroke-width:1;"/></g><!--link H?roe to H2--><g class="link" data-entity-1="H&#233;roe" data-entity-2="H2" data-source-line="49" data-uid="lnk38" id="link_H&#233;roe_H2"><path d="M61.71,841.32 C70.07,888.39 91.03,967.56 141.08,1013 C155.96,1026.51 169.6705,1033.5482 188.9505,1039.1782" fill="none" id="H&#233;roe-to-H2" style="stroke:#181818;stroke-width:1;"/><polygon fill="#181818" points="194.71,1040.86,187.192,1034.4976,189.9104,1039.4585,184.9496,1042.1769,194.71,1040.86" style="stroke:#181818;stroke-width:1;"/></g><!--link H?roe to H3--><g class="link" data-entity-1="H&#233;roe" data-entity-2="H3" data-source-line="50" data-uid="lnk39" id="link_H&#233;roe_H3"><path d="M71.78,841.63 C85.57,871.78 108.71,912.54 141.08,937 C157.12,949.12 171.2013,955.6954 190.4813,961.3354" fill="none" id="H&#233;roe-to-H3" style="stroke:#181818;stroke-width:1;"/><polygon fill="#181818" points="196.24,963.02,188.7251,956.654,191.4411,961.6162,186.479,964.3322,196.24,963.02" style="stroke:#181818;stroke-width:1;"/></g><!--link H?roe to H4--><g class="link" data-entity-1="H&#233;roe" data-entity-2="H4" data-source-line="51" data-uid="lnk40" id="link_H&#233;roe_H4"><path d="M77,823.69 C93.1,838.87 116.82,858.87 141.08,871 C164.16,882.54 185.7731,889.0333 209.4431,894.1033" fill="none" id="H&#233;roe-to-H4" style="stroke:#181818;stroke-width:1;"/><polygon fill="#181818" points="215.31,895.36,207.3474,889.5637,210.4209,894.3128,205.6718,897.3863,215.31,895.36" style="stroke:#181818;stroke-width:1;"/></g><!--link H?roe to H5--><g class="link" data-entity-1="H&#233;roe" data-entity-2="H5" data-source-line="52" data-uid="lnk41" id="link_H&#233;roe_H5"><path d="M77.03,806.45 C109.63,811.94 168.3332,821.8341 213.8432,829.4941" fill="none" id="H&#233;roe-to-H5" style="stroke:#181818;stroke-width:1;"/><polygon fill="#181818" points="219.76,830.49,211.5488,825.0517,214.8294,829.6601,210.2209,832.9407,219.76,830.49" style="stroke:#181818;stroke-width:1;"/></g><!--link H?roe to H6--><g class="link" data-entity-1="H&#233;roe" data-entity-2="H6" data-source-line="53" data-uid="lnk42" id="link_H&#233;roe_H6"><path d="M77.03,799.45 C102.94,794.97 143.168,788.0041 183.868,780.9541" fill="none" id="H&#233;roe-to-H6" style="stroke:#181818;stroke-width:1;"/><polygon fill="#181818" points="189.78,779.93,180.2293,777.5248,184.8534,780.7834,181.5948,785.4074,189.78,779.93" style="stroke:#181818;stroke-width:1;"/></g><!--link H?roe to H7--><g class="link" data-entity-1="H&#233;roe" data-entity-2="H7" data-source-line="54" data-uid="lnk43" id="link_H&#233;roe_H7"><path d="M76.98,779.42 C92.9,762.39 116.39,740.01 141.08,726 C159.93,715.31 176.2556,708.915 196.7856,702.985" fill="none" id="H&#233;roe-to-H7" style="stroke:#181818;stroke-width:1;"/><polygon fill="#181818" points="202.55,701.32,192.7935,699.9746,197.7464,702.7075,195.0135,707.6604,202.55,701.32" style="stroke:#181818;stroke-width:1;"/></g><!--link H?roe to H8--><g class="link" data-entity-1="H&#233;roe" data-entity-2="H8" data-source-line="55" data-uid="lnk44" id="link_H&#233;roe_H8"><path d="M67.78,764.48 C80.08,729.18 103.25,678.11 141.08,649 C161.4,633.36 182.4774,626.2903 206.5274,622.1403" fill="none" id="H&#233;roe-to-H8" style="stroke:#181818;stroke-width:1;"/><polygon fill="#181818" points="212.44,621.12,202.8909,618.7087,207.5128,621.9702,204.2512,626.5921,212.44,621.12" style="stroke:#181818;stroke-width:1;"/></g><!--link H?roe to T1--><g class="link" data-entity-1="H&#233;roe" data-entity-2="T1" data-source-line="56" data-uid="lnk45" id="link_H&#233;roe_T1"><path d="M60.79,764.71 C68.28,715.86 88.4,632.06 141.08,585 C158.63,569.32 176.6947,561.9468 199.1947,557.2868" fill="none" id="H&#233;roe-to-T1" style="stroke:#181818;stroke-width:1;"/><polygon fill="#181818" points="205.07,556.07,195.4458,553.9784,200.1739,557.084,197.0683,561.8121,205.07,556.07" style="stroke:#181818;stroke-width:1;"/></g><!--link H?roe to T3--><g class="link" data-entity-1="H&#233;roe" data-entity-2="T3" data-source-line="57" data-uid="lnk46" id="link_H&#233;roe_T3"><path d="M56.75,764.77 C59.2,703.77 73.06,584.45 141.08,517 C155.16,503.04 168.3644,495.9307 187.4244,490.4407" fill="none" id="H&#233;roe-to-T3" style="stroke:#181818;stroke-width:1;"/><polygon fill="#181818" points="193.19,488.78,183.4345,487.4273,188.3853,490.1639,185.6488,495.1148,193.19,488.78" style="stroke:#181818;stroke-width:1;"/></g><!--link Administrador to A1--><g class="link" data-entity-1="Administrador" data-entity-2="A1" data-source-line="60" data-uid="lnk47" id="link_Administrador_A1"><path d="M76.65,1311.6 C91.41,1286.94 113.62,1256.08 141.08,1237 C158.16,1225.13 173.2091,1218.5622 193.0991,1212.9022" fill="none" id="Administrador-to-A1" style="stroke:#181818;stroke-width:1;"/><polygon fill="#181818" points="198.87,1211.26,189.1189,1209.876,194.0609,1212.6285,191.3085,1217.5706,198.87,1211.26" style="stroke:#181818;stroke-width:1;"/></g><!--link Administrador to A2--><g class="link" data-entity-1="Administrador" data-entity-2="A2" data-source-line="61" data-uid="lnk48" id="link_Administrador_A2"><path d="M78.85,1388.57 C93.79,1411.23 115.39,1438.73 141.08,1456 C158.15,1467.48 172.9837,1473.8916 192.6637,1479.5516" fill="none" id="Administrador-to-A2" style="stroke:#181818;stroke-width:1;"/><polygon fill="#181818" points="198.43,1481.21,190.8862,1474.8782,193.6248,1479.828,188.675,1482.5666,198.43,1481.21" style="stroke:#181818;stroke-width:1;"/></g><!--link Administrador to A3--><g class="link" data-entity-1="Administrador" data-entity-2="A3" data-source-line="62" data-uid="lnk49" id="link_Administrador_A3"><path d="M105.41,1375.84 C116.92,1381.31 129.27,1386.73 141.08,1391 C166.93,1400.35 190.8025,1406.6299 215.2225,1412.0499" fill="none" id="Administrador-to-A3" style="stroke:#181818;stroke-width:1;"/><polygon fill="#181818" points="221.08,1413.35,213.1605,1407.4949,216.1988,1412.2666,211.4271,1415.3049,221.08,1413.35" style="stroke:#181818;stroke-width:1;"/></g><!--link Administrador to A4--><g class="link" data-entity-1="Administrador" data-entity-2="A4" data-source-line="63" data-uid="lnk50" id="link_Administrador_A4"><path d="M105.57,1350 C123.68,1350 138.97,1350 160.12,1350" fill="none" id="Administrador-to-A4" style="stroke:#181818;stroke-width:1;"/><polygon fill="#181818" points="166.12,1350,157.12,1346,161.12,1350,157.12,1354,166.12,1350" style="stroke:#181818;stroke-width:1;"/></g><!--link Administrador to A5--><g class="link" data-entity-1="Administrador" data-entity-2="A5" data-source-line="64" data-uid="lnk51" id="link_Administrador_A5"><path d="M105.51,1324.42 C117,1318.92 129.33,1313.44 141.08,1309 C164.49,1300.14 185.2078,1293.9078 208.1078,1287.8778" fill="none" id="Administrador-to-A5" style="stroke:#181818;stroke-width:1;"/><polygon fill="#181818" points="213.91,1286.35,204.1881,1284.7736,209.0748,1287.6232,206.2252,1292.5099,213.91,1286.35" style="stroke:#181818;stroke-width:1;"/></g><!--link Sistema to T2--><g class="link" data-entity-1="Sistema" data-entity-2="T2" data-source-line="67" data-uid="lnk52" id="link_Sistema_T2"><path d="M84.04,1573 C104.9,1573 128.99,1573 158.93,1573" fill="none" id="Sistema-to-T2" style="stroke:#181818;stroke-width:1;"/><polygon fill="#181818" points="164.93,1573,155.93,1569,159.93,1573,155.93,1577,164.93,1573" style="stroke:#181818;stroke-width:1;"/></g><!--SRC=[VLHDZzem4BtxLuoub1vMgqs0tLEbB4MbbwfYOUz3Ch3MEdPa6zGFzSVqs7D_0d-iJcnM6Q2SeZVpzFpUU6956m_UW9NR5m-Lj5HwQRHmhr8tQB661ijNtDAJ_wu8sZRghI8XiFJ6mihjq4gJqFpmnnfAeAXggQNp5YjZK-qfOAfHY3SX6AGQ57lIMx8EfaQPUYrn03y5mCvHYIxm5hJjrAoZ0Q23rLs_-rdBKg85HquU_kh8oFgChxkracMWUBI4aP3t2RDAXjRj57L9YlD6VTupMQYbYtq7mpI3zv4wxbC_aMl76SGQXJzCP4p4VsB1C0umAislvJkXPgV-ahTAkiPekLRa8f45BafgF0iwPq5dUYzvcuMRVVEaAqhPO6YQiisgagV9jPanz_Vdjm0DsOrKiVyWhawYMxGeLR2PJHUhZm5rj-DkNxeZunoAx8mNdSLkVlaEiR_HHwMprQZG6mUDbVj0IwGnI_2uS-LRnAIpPCw_62ytOLdRWP83t7bJ7txxK4diimjlK9E2YavKS_5BY7Um20kTj8v_RFh2pSs7zbTYCECmvt34uPZ32ODBhXpyS3VfnOYVZXBMleyoXdA6HWoD6PemTC_GGnyjsNbd1hlb4kmjwuXXqouKiql5_59nTAauRWy_lf77Tx6pbVq3]--></g></svg>